<?xml version="1.0" encoding="iso-8859-1"?>
<!-- Generator: Adobe Illustrator 19.0.0, SVG Export Plug-In . SVG Version: 6.00 Build 0)  -->
<svg version="1.1" id="Capa_1" xmlns="http://www.w3.org/2000/svg" xmlns:xlink="http://www.w3.org/1999/xlink" x="0px" y="0px"
	 viewBox="0 0 512 512" style="enable-background:new 0 0 512 512;" xml:space="preserve">
<path style="fill:#FEC9A3;" d="M300.138,185.379v52.966h82.803c42.028,0,76.094,34.066,76.094,76.094V512H105.931
	c-29.255,0-52.966-23.711-52.966-52.966l0,0V314.439c0-42.028,34.066-76.094,76.094-76.094l0,0h82.803v-52.966H300.138z"/>
<path style="fill:#4398D1;" d="M382.941,238.345h-56.32l-8.828,35.31c-12.491,16.684-32.124,26.5-52.966,26.483h-17.655
	c-20.842,0.018-40.474-9.799-52.966-26.483l-8.828-35.31h-56.32c-42.028,0-76.094,34.066-76.094,76.094l0,0v144.596
	c0,29.255,23.711,52.966,52.966,52.966l0,0h353.103V314.439C459.034,272.41,424.969,238.345,382.941,238.345z"/>
<path style="fill:#3E8CC7;" d="M105.931,512h353.103V326.621c-87.481,86.775-279.746,142.036-399.713,157.572
	C68.564,501.319,86.466,512,105.931,512z"/>
<g>
	<polygon style="fill:#EBEBEB;" points="256,512 185.379,238.345 141.241,238.345 211.862,512 	"/>
	<rect x="158.897" y="432.552" style="fill:#EBEBEB;" width="158.897" height="79.448"/>
</g>
<rect x="158.897" y="485.517" style="fill:#E0E0E0;" width="158.897" height="26.483"/>
<g>
	<path style="fill:#FEC9A3;" d="M335.448,432.552h-17.655V512h17.655c9.754,0,17.655-7.901,17.655-17.655v-44.138
		C353.103,440.452,345.203,432.552,335.448,432.552z"/>
	<rect x="388.414" y="353.103" style="fill:#FEC9A3;" width="70.621" height="158.897"/>
</g>
<g>
	<polygon style="fill:#D1D1D1;" points="317.793,432.552 370.759,238.345 326.621,238.345 273.655,432.552 	"/>
	<polygon style="fill:#D1D1D1;" points="317.793,432.552 370.759,238.345 326.621,238.345 273.655,432.552 	"/>
</g>
<g>
	<path style="fill:#FEC9A3;" d="M123.586,432.552v-79.448H52.966v105.931c0,29.255,23.711,52.966,52.966,52.966l0,0h52.966v-79.448
		H123.586z"/>
	<path style="fill:#FEC9A3;" d="M289.986,397.241c-10.019,0.018-19.182,5.685-23.658,14.654L256,432.552h35.31
		c19.5,0,35.31-15.81,35.31-35.31H289.986z"/>
</g>
<path style="fill:#F7BB8F;" d="M300.138,216.099v-21.892h-88.276v21.892C238.583,233.949,273.417,233.949,300.138,216.099z"/>
<path style="fill:#FEC9A3;" d="M194.207,35.31c-7.327,7.089-12.606,16.022-15.272,25.865c-1.607,6.347-2.41,12.871-2.383,19.421
	v44.138c0,43.882,35.566,79.448,79.448,79.448l0,0c43.882,0,79.448-35.566,79.448-79.448V56.585
	c-0.009-7.98-3.178-15.634-8.828-21.274H194.207z"/>
<path style="fill:#F0B184;" d="M264.828,150.069h-26.483c-4.873,0.062-8.881-3.84-8.942-8.713c-0.009-0.512,0.035-1.024,0.115-1.527
	l8.828-52.966L256,89.688l-7.239,42.726h16.066V150.069z"/>
<path style="fill:#75462E;" d="M300.138,44.138h-97.103c-24.373,0-44.138-19.765-44.138-44.138H291.31
	c24.373,0,44.138,19.765,44.138,44.138v61.793L300.138,44.138z"/>
<g>
</g>
<g>
</g>
<g>
</g>
<g>
</g>
<g>
</g>
<g>
</g>
<g>
</g>
<g>
</g>
<g>
</g>
<g>
</g>
<g>
</g>
<g>
</g>
<g>
</g>
<g>
</g>
<g>
</g>
</svg>
